Coordinates
version=1
nRows=14
nColumns=36
inDegrees=yes

Units are S.I. units (second, meters, Newtons, ...)
If the header above contains a line with 'inDegrees', this indicates whether rotational values are in degrees (yes) or radians (no).

endheader
time	pelvis_tilt	pelvis_list	pelvis_rotation	pelvis_tx	pelvis_ty	pelvis_tz	hip_flexion_r	hip_adduction_r	hip_rotation_r	knee_angle_r	knee_angle_r_beta	ankle_angle_r	subtalar_angle_r	mtp_angle_r	hip_flexion_l	hip_adduction_l	hip_rotation_l	knee_angle_l	knee_angle_l_beta	ankle_angle_l	subtalar_angle_l	mtp_angle_l	lumbar_extension	lumbar_bending	lumbar_rotation	arm_flex_r	arm_add_r	arm_rot_r	elbow_flex_r	pro_sup_r	arm_flex_l	arm_add_l	arm_rot_l	elbow_flex_l	pro_sup_l
      4.76666670	    -16.97145279	     12.37616167	      3.80686721	      1.64540135	      0.82307312	      0.02237507	     77.78253456	    -10.37825471	     11.83937665	     36.06992536	      0.62953896	      3.60154637	     10.67019905	     -7.49999987	     54.06595383	     16.49142203	    -11.56362260	     71.21424639	      1.24292307	     38.03786944	     -3.48223750	     -7.49999987	    -12.90182370	    -16.80463903	      5.00954073	     54.65734328	     11.39233024	     60.81265405	    113.49648304	     99.43967361	     48.48803330	     -2.54527467	     59.42448138	    127.43691964	     99.93687677
      4.78333330	    -16.18240292	     11.78730495	      3.37382110	      1.64637025	      0.84354875	      0.02210846	     74.49379159	    -10.39733088	     10.51098946	     33.93199589	      0.59222505	      3.69508261	     12.12221677	     -7.49999987	     51.02078997	     16.55436464	    -10.18123061	     67.78792675	      1.18312251	     37.35890544	     -3.75746673	     -7.49999987	    -12.79677097	    -16.24510729	      5.82244811	     53.88987450	     11.14457119	     59.63843183	    114.09741200	    102.84552229	     48.32421242	     -1.98703740	     59.33394365	    126.56088805	    101.98432618
      4.80000000	    -15.14893600	     11.05856547	      3.08392449	      1.64391258	      0.86097828	      0.02473048	     70.69206383	    -10.31563910	      9.16388214	     31.87672797	      0.55635386	      3.55529589	     13.55948558	     -7.49999987	     47.66532367	     16.49568223	     -8.62491027	     64.10007205	      1.11875731	     36.41392398	     -4.16774334	     -7.49999987	    -13.30884143	    -15.42114804	      6.54524759	     53.14036599	     10.24309759	     59.27347044	    113.87553171	    102.59612982	     47.59461786	     -1.50722561	     59.25266167	    125.23990080	    101.70170955
      4.81666670	    -14.38580149	     10.13177546	      2.77542457	      1.64906754	      0.87220510	      0.02147491	     66.92018979	    -10.01069811	      7.95997264	     29.97678700	      0.52319363	      3.42161413	     14.55168928	     -7.49999987	     44.33420464	     16.14117094	     -6.99399500	     60.14080696	      1.04965510	     35.59932249	     -4.36091510	     -7.49999987	    -13.22717836	    -14.37609574	      6.82340484	     51.92676349	      9.54689865	     59.50170081	    114.87586860	    102.71962408	     46.39157850	     -1.18712388	     59.07106500	    124.03524299	    101.58961028
      4.83333330	    -13.74908973	      9.22604767	      2.54107559	      1.64648533	      0.88763793	      0.02193406	     63.30370838	     -9.48942090	      7.05558816	     28.35483230	      0.49488518	      2.99230582	     15.11059072	     -7.49999987	     41.11465089	     15.55547815	     -5.75645706	     55.86293044	      0.97499207	     34.50078976	     -4.53186429	     -7.49999987	    -13.13952104	    -13.42730609	      7.32256895	     51.35112259	      8.98506525	     59.19127314	    115.97054522	    102.76826652	     45.87526659	      0.00236446	     58.88079391	    123.33009696	    101.34152571
      4.85000000	    -13.41488253	      8.22211416	      2.48950047	      1.64837199	      0.89803129	      0.02162845	     60.01199406	     -8.87846361	      6.36187231	     26.84473334	      0.46852898	      2.61466175	     15.23008047	     -7.49999987	     38.00513100	     14.80974578	     -4.58719996	     51.25019746	      0.89448469	     33.07644025	     -4.58073948	     -7.49999987	    -12.61688055	    -12.37622222	      7.43574580	     50.15218761	      8.23532536	     58.71157876	    116.49495005	    102.82496934	     45.06590091	      1.01674173	     58.61349309	    122.08240158	    101.28726946
      4.86666670	    -12.50069157	      7.37298075	      2.39274808	      1.65038639	      0.92093740	      0.02001884	     56.01844027	     -8.34705394	      5.77390367	     25.54706861	      0.44588046	      2.30091862	     15.13197294	     -7.49999987	     33.97024107	     14.16657130	     -3.49002719	     45.90455712	      0.80118566	     30.86513440	     -4.91734247	     -7.49999987	    -13.33501243	    -11.49449821	      7.78502537	     49.26797876	      6.91518866	     58.41640748	    117.33397386	    103.20346712	     44.56373246	      1.58194760	     59.56088324	    120.83405190	    101.55371486
      4.88333330	    -11.95635055	      6.38242355	      2.19383605	      1.64811698	      0.93040633	      0.02096693	     52.55086315	     -7.47538745	      5.36648072	     24.64860268	      0.43019927	      2.02958996	     14.40906212	     -7.49999987	     30.47421822	     13.20796576	     -2.72587975	     40.46289743	      0.70621079	     28.21399926	     -5.25424910	     -7.49999987	    -13.50959272	    -10.57103137	      8.08805562	     49.03780237	      6.40155065	     57.79922559	    118.41592252	    103.53656271	     44.65744208	      2.70086489	     59.83595997	    119.95207243	    101.76486708
      4.90000000	    -11.44335745	      5.15784133	      1.80526756	      1.65461966	      0.94027081	      0.01685065	     49.29663194	     -6.31321330	      4.96447111	     24.43337792	      0.42644289	      2.52387751	     13.29616393	     -7.49999987	     27.01948446	     11.89298614	     -2.16077733	     35.08136103	      0.61228526	     25.28056049	     -5.47872678	     -7.49999987	    -13.08089161	     -9.22790538	      8.41758730	     48.45665962	      5.61354154	     57.91599226	    119.56868340	    103.38593012	     44.21109662	      4.02439905	     59.80377382	    119.06399299	    101.66192355
      4.91666670	    -11.79693553	      3.76585597	      1.47544653	      1.66132701	      0.94348392	      0.01994307	     47.40799317	     -4.95736378	      4.61971492	     25.07462808	      0.43763482	      3.81061044	     12.15080532	     -7.49999987	     24.94713985	     10.33794566	     -2.04275577	     30.49287082	      0.53220099	     22.92776993	     -4.74966697	     -7.49999987	    -11.46994488	     -7.72576605	      8.54680308	     47.53036117	      5.01145435	     57.89407626	    120.04171347	    103.43198455	     43.16034391	      4.23626287	     60.29258679	    119.24704929	    101.77154886
      4.93333330	    -10.75821531	      2.46371814	      0.69785914	      1.66760473	      0.95399864	      0.01676116	     44.35435724	     -3.45141736	      4.55282943	     26.03461439	      0.45438974	      5.09287614	     10.51674926	     -7.49999987	     21.51155152	      8.88241479	     -1.91454638	     26.04007828	      0.45448510	     20.39191716	     -4.83236875	     -7.49999987	    -11.70579534	     -6.26371801	      9.41247336	     47.05381072	      4.10297021	     57.78364454	    121.31776264	    103.61906112	     42.65573935	      5.16011688	     60.95191476	    118.32305728	    102.49617724
      4.95000000	    -10.47525913	      1.14530674	      0.17668825	      1.67265493	      0.95733498	      0.01846918	     42.21486180	     -2.06230580	      4.31244365	     27.46093736	      0.47928377	      6.94990873	      9.07275494	     -7.49999987	     19.17868520	      7.45376314	     -2.06256499	     22.27388787	      0.38875268	     18.55714693	     -4.03998961	     -7.49999987	    -10.79353744	     -4.76001829	      9.51177740	     46.64154916	      4.13394894	     57.83379357	    121.78773733	    104.17346380	     41.72154152	      5.07384853	     60.63756868	    118.11493526	    103.15578415
      4.96666670	    -10.55998502	      0.12684862	     -0.16588356	      1.67339117	      0.95485490	      0.01007537	     41.21593796	     -1.24219970	      3.84333736	     29.75661295	      0.51935087	      8.94111514	      7.83535684	     -7.49999987	     17.94814924	      6.49971486	     -2.30044296	     19.85546769	      0.34654329	     17.42618107	     -3.26973189	     -7.49999987	     -9.56454030	     -3.32160567	      9.06606459	     46.64950475	      4.00311290	     57.89674164	    122.87087912	    104.29644304	     41.57532434	      5.52790949	     60.20276548	    118.38569974	    103.31945380
      4.98333330	    -10.47166522	     -0.58794727	     -0.40158584	      1.67365799	      0.94852085	      0.00937141	     40.19518203	     -0.72090643	      3.60530557	     32.14003776	      0.56094948	     11.23738544	      6.57907999	     -7.49999987	     16.98916360	      5.87136941	     -2.73210819	     18.21461677	      0.31790503	     16.71331943	     -2.70950743	     -7.49999987	     -8.65531160	     -2.32656485	      8.55802989	     47.09767609	      4.08823900	     57.59933236	    123.59822542	    104.13742444	     41.82953693	      6.07990113	     59.50643764	    118.48907999	    103.27441413
